<svg width="395" height="395" viewBox="0 0 395 395" fill="none" xmlns="http://www.w3.org/2000/svg">
<g filter="url(#filter0_b_624_1972)">
<rect x="146.803" width="288" height="288" rx="144" transform="rotate(30.6459 146.803 0)" fill="#14B240"/>
<path d="M131.339 170.42L132.156 167.408L132.101 167.375C129.484 168.527 126.845 168.315 124.184 166.738C121.431 165.107 119.761 162.841 119.174 159.939C118.587 157.037 119.186 154.081 120.969 151.071C122.752 148.061 125.041 146.082 127.834 145.134C130.657 144.178 133.565 144.586 136.556 146.359C138.795 147.685 140.266 149.325 140.968 151.279C141.7 153.225 141.649 155.278 140.816 157.437L138.256 155.92C138.774 154.417 138.778 153.031 138.266 151.76C137.764 150.472 136.752 149.376 135.229 148.473C132.953 147.125 130.791 146.861 128.743 147.681C126.695 148.501 124.948 150.131 123.502 152.572C122.077 154.976 121.558 157.297 121.943 159.534C122.34 161.753 123.538 163.455 125.539 164.64C127.466 165.782 129.271 166.083 130.955 165.543C132.657 165.014 134.03 163.868 135.074 162.106L135.351 161.638L129.432 158.131L130.705 155.984L139.101 160.959L132.936 171.366L131.339 170.42ZM141.88 177.186C139.77 175.935 138.509 174.234 138.098 172.081C137.717 169.921 138.162 167.767 139.434 165.62C140.685 163.509 142.358 162.108 144.454 161.415C146.58 160.716 148.634 160.953 150.616 162.128C152.708 163.367 153.888 165.058 154.156 167.201C154.435 169.325 153.857 171.598 152.422 174.021L141.409 167.497C140.609 169.056 140.321 170.547 140.545 171.969C140.798 173.383 141.613 174.498 142.989 175.314C145.118 176.575 147.007 176.38 148.655 174.728L150.83 176.017C149.597 177.344 148.198 178.115 146.634 178.328C145.08 178.524 143.495 178.143 141.88 177.186ZM151.828 166.863C151.59 165.631 150.838 164.64 149.572 163.89C148.306 163.139 147.046 162.963 145.793 163.362C144.559 163.771 143.448 164.6 142.459 165.85L151.021 170.923C151.796 169.448 152.065 168.094 151.828 166.863ZM156.883 168.779L157.959 166.962L160.024 168.185L162.683 163.698L164.913 165.019L162.254 169.507L165.007 171.138L163.931 172.955L161.178 171.324L155.697 180.574C155.175 181.455 155.391 182.178 156.346 182.744C156.749 182.983 157.182 183.152 157.644 183.252L157.726 183.301L156.584 185.228C155.903 184.998 155.268 184.709 154.681 184.361C152.588 183.121 152.086 181.584 153.173 179.748L158.948 170.002L156.883 168.779ZM174.355 196.092C172.942 195.255 172.544 194.064 173.161 192.52L173.133 192.504C171.067 193.313 169.043 193.13 167.061 191.956C165.647 191.119 164.692 190.094 164.195 188.882C163.698 187.67 163.83 186.422 164.592 185.137C164.983 184.476 165.421 183.967 165.906 183.61C166.419 183.244 166.929 183.013 167.433 182.915C167.948 182.799 168.556 182.799 169.255 182.916C169.984 183.025 170.647 183.183 171.244 183.388C171.853 183.575 172.608 183.849 173.51 184.209C174.086 184.451 174.495 184.619 174.737 184.713C175.008 184.799 175.354 184.905 175.776 185.031C176.208 185.138 176.535 185.171 176.758 185.13C176.981 185.088 177.222 184.996 177.481 184.851C177.74 184.707 177.957 184.488 178.131 184.195C178.609 183.387 178.689 182.604 178.37 181.845C178.081 181.078 177.431 180.395 176.422 179.797C174.127 178.438 172.324 178.783 171.011 180.832L168.863 179.559C169.759 178.131 170.945 177.259 172.421 176.944C173.916 176.639 175.572 177.025 177.389 178.102C180.895 180.179 181.756 182.722 179.972 185.732L175.96 192.505C175.59 193.129 175.43 193.629 175.48 194.006C175.548 194.393 175.913 194.697 176.577 194.916L176.659 194.965L175.697 196.589C175.243 196.519 174.796 196.353 174.355 196.092ZM168.567 190.543C169.944 191.358 171.242 191.594 172.462 191.251C173.693 190.889 174.592 190.231 175.157 189.277L176.592 186.854C175.663 186.874 174.374 186.581 172.724 185.975C172.108 185.759 171.622 185.596 171.267 185.484C170.922 185.354 170.499 185.252 169.997 185.178C169.507 185.086 169.106 185.072 168.795 185.136C168.485 185.2 168.164 185.344 167.832 185.569C167.511 185.776 167.231 186.081 166.992 186.485C166.078 188.026 166.604 189.379 168.567 190.543ZM197.849 212.057L196.228 207.824C194.347 207.776 192.489 207.208 190.654 206.12C187.736 204.391 185.966 202.041 185.346 199.07C184.744 196.11 185.33 193.134 187.102 190.143C188.875 187.151 191.204 185.208 194.089 184.314C196.993 183.431 199.904 183.854 202.822 185.583C205.74 187.312 207.5 189.656 208.102 192.616C208.722 195.587 208.146 198.569 206.374 201.56C204.427 204.846 201.864 206.849 198.685 207.569L200.061 211.211L197.849 212.057ZM191.942 203.946C193.025 204.587 194.116 204.985 195.214 205.14L194.178 202.369L196.391 201.523L197.705 205.017C200.165 204.465 202.21 202.813 203.841 200.06C205.255 197.674 205.783 195.359 205.427 193.114C205.081 190.851 203.789 189.057 201.55 187.73C199.311 186.403 197.116 186.132 194.965 186.916C192.825 187.681 191.049 189.257 189.635 191.643C188.221 194.029 187.693 196.344 188.049 198.589C188.406 200.833 189.703 202.619 191.942 203.946ZM214.445 219.658L212.215 218.337L213.373 216.382L213.318 216.35C211.296 217.21 209.413 217.123 207.669 216.09C206.201 215.22 205.28 214.117 204.907 212.78C204.544 211.424 204.798 210.013 205.668 208.544L211.508 198.688L213.738 200.009L207.931 209.81C207.387 210.728 207.238 211.607 207.484 212.447C207.749 213.298 208.386 214.023 209.395 214.621C210.515 215.284 211.637 215.441 212.762 215.09C213.887 214.74 214.787 213.996 215.461 212.858L220.648 204.104L222.878 205.425L214.445 219.658ZM229.572 226.24C227.475 226.932 225.39 226.664 223.316 225.435C221.242 224.206 219.996 222.501 219.578 220.319C219.178 218.148 219.609 215.998 220.87 213.869C222.132 211.74 223.81 210.329 225.907 209.637C228.021 208.956 230.116 209.23 232.19 210.458C234.264 211.687 235.5 213.387 235.9 215.558C236.3 217.729 235.869 219.879 234.608 222.008C233.347 224.137 231.668 225.548 229.572 226.24ZM221.941 219.971C222.129 221.496 222.957 222.693 224.425 223.563C225.894 224.433 227.332 224.579 228.741 224C230.161 223.403 231.355 222.288 232.323 220.654C233.302 219.003 233.697 217.414 233.509 215.89C233.351 214.358 232.547 213.162 231.097 212.303C229.628 211.433 228.175 211.291 226.737 211.877C225.317 212.474 224.123 213.589 223.155 215.223C222.187 216.856 221.783 218.439 221.941 219.971ZM238.803 217.315L239.879 215.498L241.944 216.721L244.603 212.234L246.833 213.555L244.174 218.042L246.927 219.674L245.851 221.491L243.098 219.859L237.617 229.11C237.095 229.991 237.311 230.714 238.266 231.279C238.669 231.519 239.102 231.688 239.564 231.788L239.646 231.837L238.504 233.764C237.823 233.534 237.188 233.245 236.601 232.897C234.508 231.657 234.006 230.119 235.093 228.284L240.868 218.538L238.803 217.315ZM246.518 239.182C244.408 237.931 243.147 236.23 242.736 234.077C242.355 231.917 242.8 229.763 244.072 227.616C245.323 225.505 246.996 224.104 249.093 223.411C251.218 222.712 253.272 222.949 255.254 224.124C257.346 225.363 258.527 227.054 258.795 229.197C259.073 231.321 258.495 233.594 257.06 236.017L246.047 229.493C245.248 231.052 244.959 232.543 245.183 233.965C245.436 235.379 246.251 236.494 247.628 237.31C249.757 238.571 251.645 238.376 253.293 236.724L255.468 238.013C254.235 239.34 252.837 240.111 251.272 240.324C249.718 240.52 248.133 240.139 246.518 239.182ZM256.466 228.859C256.228 227.627 255.477 226.636 254.21 225.886C252.944 225.135 251.684 224.959 250.431 225.358C249.197 225.767 248.086 226.596 247.098 227.846L255.66 232.919C256.434 231.444 256.703 230.09 256.466 228.859Z" fill="#F0F8E9"/>
<path d="M278.129 239.373C278.27 239.136 278.191 238.829 277.954 238.688L274.082 236.395C273.844 236.254 273.538 236.332 273.397 236.57C273.256 236.807 273.335 237.114 273.572 237.255L277.014 239.294L274.975 242.735C274.834 242.973 274.912 243.279 275.15 243.42C275.388 243.561 275.694 243.482 275.835 243.245L278.129 239.373ZM264.122 243.109L277.823 239.603L277.575 238.634L263.874 242.14L264.122 243.109Z" fill="#F0F8E9"/>
</g>
<defs>
<filter id="filter0_b_624_1972" x="-30" y="-30" width="454.578" height="454.579" filterUnits="userSpaceOnUse" color-interpolation-filters="sRGB">
<feFlood flood-opacity="0" result="BackgroundImageFix"/>
<feGaussianBlur in="BackgroundImageFix" stdDeviation="15"/>
<feComposite in2="SourceAlpha" operator="in" result="effect1_backgroundBlur_624_1972"/>
<feBlend mode="normal" in="SourceGraphic" in2="effect1_backgroundBlur_624_1972" result="shape"/>
</filter>
</defs>
</svg>
