<svg width="54" height="54" viewBox="0 0 54 54" fill="none" xmlns="http://www.w3.org/2000/svg">
<circle cx="27" cy="27" r="26.5" stroke="#14B240"/>
<path d="M20.8292 35C20.8792 33.95 21.0542 33.025 21.3542 32.225C21.6709 31.425 22.1959 30.6917 22.9292 30.025C23.6792 29.3583 24.2625 28.8833 24.6792 28.6C25.1125 28.3 25.8625 27.8417 26.9292 27.225C26.9625 27.1917 26.9875 27.175 27.0042 27.175C27.0209 27.1583 27.0459 27.1417 27.0792 27.125C27.1125 27.1083 27.1375 27.0917 27.1542 27.075C27.1875 27.0583 27.2209 27.0417 27.2542 27.025C28.5709 26.2583 29.5042 25.6 30.0542 25.05C30.6042 24.4833 30.8792 23.725 30.8792 22.775C30.8792 21.725 30.5375 20.875 29.8542 20.225C29.1875 19.575 28.2875 19.25 27.1542 19.25C26.0042 19.25 25.0959 19.6083 24.4292 20.325C23.7792 21.025 23.4542 22.1667 23.4542 23.75H21.2542C21.2542 21.7333 21.7959 20.1833 22.8792 19.1C23.9625 18.0333 25.4459 17.5 27.3292 17.5C29.0459 17.5 30.4292 17.9917 31.4792 18.975C32.5292 19.9583 33.0542 21.2167 33.0542 22.75C33.0542 23.3667 32.9625 23.9333 32.7792 24.45C32.5959 24.9667 32.4042 25.3833 32.2042 25.7C32.0042 26.0167 31.6375 26.3833 31.1042 26.8C30.5709 27.2 30.1709 27.475 29.9042 27.625C29.6542 27.775 29.1542 28.0583 28.4042 28.475C28.2542 28.5583 28.1375 28.625 28.0542 28.675C27.2542 29.125 26.5875 29.5167 26.0542 29.85C25.5375 30.1833 24.9959 30.65 24.4292 31.25C23.8625 31.8333 23.5042 32.4167 23.3542 33H32.7042V35H20.8292Z" fill="#14B240"/>
</svg>
