<svg width="160" height="160" viewBox="0 0 160 160" fill="none" xmlns="http://www.w3.org/2000/svg">
<circle cx="80" cy="80" r="80" fill="white"/>
<g filter="url(#filter0_d_624_1584)">
<path d="M50.65 86V64.55H59.02C61.86 64.55 64.14 65.58 65.86 67.64C67.58 69.68 68.44 72.3 68.44 75.5C68.44 79.2 67.3 82.01 65.02 83.93C63.36 85.31 61.24 86 58.66 86H50.65ZM55 82.25H58.36C60.34 82.25 61.78 81.68 62.68 80.54C63.58 79.38 64.03 77.7 64.03 75.5C64.03 73.3 63.55 71.55 62.59 70.25C61.65 68.93 60.28 68.27 58.48 68.27H55V82.25ZM74.4063 70.61V73.07H74.4963C74.9763 72.17 75.5063 71.51 76.0863 71.09C76.6663 70.65 77.3963 70.43 78.2763 70.43C78.6963 70.43 79.0163 70.47 79.2363 70.55V74.12H79.1463C77.7663 73.98 76.6563 74.28 75.8163 75.02C74.9763 75.76 74.5563 76.92 74.5563 78.5V86H70.4763V70.61H74.4063ZM90.2444 86C90.0444 85.74 89.8844 85.17 89.7644 84.29H89.7044C89.2644 84.95 88.7044 85.46 88.0244 85.82C87.3444 86.18 86.3944 86.36 85.1744 86.36C83.5544 86.36 82.2544 85.95 81.2744 85.13C80.2944 84.31 79.8044 83.15 79.8044 81.65C79.8044 80.09 80.3444 78.95 81.4244 78.23C82.5044 77.49 84.0244 76.98 85.9844 76.7C87.4244 76.5 88.4044 76.3 88.9244 76.1C89.4444 75.88 89.7044 75.5 89.7044 74.96C89.7044 74.4 89.4844 73.96 89.0444 73.64C88.6044 73.3 87.9644 73.13 87.1244 73.13C85.2644 73.13 84.2744 73.85 84.1544 75.29H80.5244C80.5844 73.83 81.1744 72.62 82.2944 71.66C83.4144 70.7 85.0344 70.22 87.1544 70.22C91.4744 70.22 93.6344 72.11 93.6344 75.89V83.72C93.6344 84.88 93.8144 85.59 94.1744 85.85V86H90.2444ZM86.1644 83.51C87.2844 83.51 88.1644 83.22 88.8044 82.64C89.4644 82.06 89.7944 81.37 89.7944 80.57V78.26C89.3544 78.52 88.4044 78.82 86.9444 79.16C85.7844 79.42 84.9644 79.72 84.4844 80.06C84.0044 80.38 83.7644 80.88 83.7644 81.56C83.7644 82.86 84.5644 83.51 86.1644 83.51ZM103.008 91.25C100.928 91.25 99.2582 90.83 97.9982 89.99C96.7582 89.15 96.0282 87.97 95.8082 86.45H99.8582C100.258 87.59 101.288 88.16 102.948 88.16C105.228 88.16 106.368 87.09 106.368 84.95V83.27H106.278C105.218 84.47 103.878 85.07 102.258 85.07C100.438 85.07 98.8482 84.4 97.4882 83.06C96.1482 81.72 95.4782 79.94 95.4782 77.72C95.4782 75.44 96.0982 73.62 97.3382 72.26C98.5782 70.88 100.178 70.19 102.138 70.19C103.998 70.19 105.418 70.87 106.398 72.23H106.458V70.61H110.388V84.83C110.388 86.83 109.778 88.39 108.558 89.51C107.318 90.67 105.468 91.25 103.008 91.25ZM102.948 81.8C104.168 81.8 105.078 81.41 105.678 80.63C106.278 79.85 106.578 78.85 106.578 77.63C106.578 76.43 106.258 75.44 105.618 74.66C104.998 73.86 104.098 73.46 102.918 73.46C101.878 73.46 101.038 73.84 100.398 74.6C99.7782 75.36 99.4682 76.38 99.4682 77.66C99.4682 78.96 99.7782 79.98 100.398 80.72C101.038 81.44 101.888 81.8 102.948 81.8Z" fill="black"/>
</g>
<path d="M134.354 76.3536C134.549 76.1583 134.549 75.8417 134.354 75.6464L131.172 72.4645C130.976 72.2692 130.66 72.2692 130.464 72.4645C130.269 72.6597 130.269 72.9763 130.464 73.1716L133.293 76L130.464 78.8284C130.269 79.0237 130.269 79.3403 130.464 79.5355C130.66 79.7308 130.976 79.7308 131.172 79.5355L134.354 76.3536ZM117 76.5H134V75.5H117V76.5Z" fill="black"/>
<path d="M25.6464 76.3536C25.4512 76.1583 25.4512 75.8417 25.6464 75.6464L28.8284 72.4645C29.0237 72.2692 29.3403 72.2692 29.5355 72.4645C29.7308 72.6597 29.7308 72.9763 29.5355 73.1716L26.7071 76L29.5355 78.8284C29.7308 79.0237 29.7308 79.3403 29.5355 79.5355C29.3403 79.7308 29.0237 79.7308 28.8284 79.5355L25.6464 76.3536ZM43 76.5H26V75.5H43V76.5Z" fill="black"/>
<defs>
<filter id="filter0_d_624_1584" x="10.6504" y="24.5498" width="139.738" height="106.7" filterUnits="userSpaceOnUse" color-interpolation-filters="sRGB">
<feFlood flood-opacity="0" result="BackgroundImageFix"/>
<feColorMatrix in="SourceAlpha" type="matrix" values="0 0 0 0 0 0 0 0 0 0 0 0 0 0 0 0 0 0 127 0" result="hardAlpha"/>
<feOffset/>
<feGaussianBlur stdDeviation="20"/>
<feComposite in2="hardAlpha" operator="out"/>
<feColorMatrix type="matrix" values="0 0 0 0 0 0 0 0 0 0 0 0 0 0 0 0 0 0 0.08 0"/>
<feBlend mode="normal" in2="BackgroundImageFix" result="effect1_dropShadow_624_1584"/>
<feBlend mode="normal" in="SourceGraphic" in2="effect1_dropShadow_624_1584" result="shape"/>
</filter>
</defs>
</svg>
